<?xml version="1.0" encoding="UTF-8"?>
<svg xmlns="http://www.w3.org/2000/svg" xmlns:xlink="http://www.w3.org/1999/xlink" width="100px" height="93px" viewBox="0 0 100 93" version="1.1">
<g id="surface1">
<path style="fill-rule:nonzero;fill:rgb(88.627451%,46.27451%,10.588235%);fill-opacity:1;stroke-width:1;stroke-linecap:round;stroke-linejoin:round;stroke:rgb(88.627451%,46.27451%,10.588235%);stroke-opacity:1;stroke-miterlimit:4;" d="M 482.08997 0.494435 L 284.326427 147.381079 L 320.907425 60.716574 Z M 482.08997 0.494435 " transform="matrix(0.196909,0,0,0.197511,0.00187084,0)"/>
<path style="fill-rule:nonzero;fill:rgb(89.411765%,46.27451%,10.588235%);fill-opacity:1;stroke-width:1;stroke-linecap:round;stroke-linejoin:round;stroke:rgb(89.411765%,46.27451%,10.588235%);stroke-opacity:1;stroke-miterlimit:4;" d="M 25.541652 0.494435 L 221.718167 148.765496 L 186.922575 60.716574 Z M 25.541652 0.494435 " transform="matrix(0.196909,0,0,0.197511,0.00187084,0)"/>
<path style="fill-rule:nonzero;fill:rgb(89.411765%,46.27451%,10.588235%);fill-opacity:1;stroke-width:1;stroke-linecap:round;stroke-linejoin:round;stroke:rgb(89.411765%,46.27451%,10.588235%);stroke-opacity:1;stroke-miterlimit:4;" d="M 410.931596 340.96213 L 358.2621 421.673642 L 470.960935 452.664805 L 503.356147 342.761872 Z M 410.931596 340.96213 " transform="matrix(0.196909,0,0,0.197511,0.00187084,0)"/>
<path style="fill-rule:nonzero;fill:rgb(89.411765%,46.27451%,10.588235%);fill-opacity:1;stroke-width:1;stroke-linecap:round;stroke-linejoin:round;stroke:rgb(89.411765%,46.27451%,10.588235%);stroke-opacity:1;stroke-miterlimit:4;" d="M 4.672232 342.761872 L 36.869065 452.664805 L 149.5679 421.673642 L 96.898404 340.96213 Z M 4.672232 342.761872 " transform="matrix(0.196909,0,0,0.197511,0.00187084,0)"/>
<path style="fill-rule:nonzero;fill:rgb(89.411765%,46.27451%,10.588235%);fill-opacity:1;stroke-width:1;stroke-linecap:round;stroke-linejoin:round;stroke:rgb(89.411765%,46.27451%,10.588235%);stroke-opacity:1;stroke-miterlimit:4;" d="M 143.219788 204.616833 L 111.796631 252.122114 L 223.701952 257.106015 L 219.734382 136.859509 Z M 143.219788 204.616833 " transform="matrix(0.196909,0,0,0.197511,0.00187084,0)"/>
<path style="fill-rule:nonzero;fill:rgb(89.411765%,46.27451%,10.588235%);fill-opacity:1;stroke-width:1;stroke-linecap:round;stroke-linejoin:round;stroke:rgb(89.411765%,46.27451%,10.588235%);stroke-opacity:1;stroke-miterlimit:4;" d="M 364.411834 204.616833 L 286.905347 135.455315 L 284.326427 257.106015 L 396.033369 252.122114 Z M 364.411834 204.616833 " transform="matrix(0.196909,0,0,0.197511,0.00187084,0)"/>
<path style="fill-rule:nonzero;fill:rgb(89.411765%,46.27451%,10.588235%);fill-opacity:1;stroke-width:1;stroke-linecap:round;stroke-linejoin:round;stroke:rgb(89.411765%,46.27451%,10.588235%);stroke-opacity:1;stroke-miterlimit:4;" d="M 149.5679 421.673642 L 216.758704 388.862959 L 158.71315 343.552968 Z M 149.5679 421.673642 " transform="matrix(0.196909,0,0,0.197511,0.00187084,0)"/>
<path style="fill-rule:nonzero;fill:rgb(89.411765%,46.27451%,10.588235%);fill-opacity:1;stroke-width:1;stroke-linecap:round;stroke-linejoin:round;stroke:rgb(89.411765%,46.27451%,10.588235%);stroke-opacity:1;stroke-miterlimit:4;" d="M 290.872918 388.862959 L 358.2621 421.673642 L 348.918472 343.552968 Z M 290.872918 388.862959 " transform="matrix(0.196909,0,0,0.197511,0.00187084,0)"/>
<path style="fill-rule:nonzero;fill:rgb(84.313725%,75.686275%,70.196078%);fill-opacity:1;stroke-width:1;stroke-linecap:round;stroke-linejoin:round;stroke:rgb(84.313725%,75.686275%,70.196078%);stroke-opacity:1;stroke-miterlimit:4;" d="M 358.2621 421.673642 L 290.872918 388.862959 L 296.248975 432.80831 L 295.65384 451.280388 Z M 358.2621 421.673642 " transform="matrix(0.196909,0,0,0.197511,0.00187084,0)"/>
<path style="fill-rule:nonzero;fill:rgb(84.313725%,75.686275%,70.196078%);fill-opacity:1;stroke-width:1;stroke-linecap:round;stroke-linejoin:round;stroke:rgb(84.313725%,75.686275%,70.196078%);stroke-opacity:1;stroke-miterlimit:4;" d="M 149.5679 421.673642 L 212.17616 451.280388 L 211.779403 432.80831 L 216.758704 388.862959 Z M 149.5679 421.673642 " transform="matrix(0.196909,0,0,0.197511,0.00187084,0)"/>
<path style="fill-rule:nonzero;fill:rgb(13.72549%,20.392157%,27.843137%);fill-opacity:1;stroke-width:1;stroke-linecap:round;stroke-linejoin:round;stroke:rgb(13.72549%,20.392157%,27.843137%);stroke-opacity:1;stroke-miterlimit:4;" d="M 213.168053 314.539543 L 157.126122 298.045203 L 196.66296 279.948895 Z M 213.168053 314.539543 " transform="matrix(0.196909,0,0,0.197511,0.00187084,0)"/>
<path style="fill-rule:nonzero;fill:rgb(13.72549%,20.392157%,27.843137%);fill-opacity:1;stroke-width:1;stroke-linecap:round;stroke-linejoin:round;stroke:rgb(13.72549%,20.392157%,27.843137%);stroke-opacity:1;stroke-miterlimit:4;" d="M 294.463569 314.539543 L 310.968661 279.948895 L 350.703878 298.045203 Z M 294.463569 314.539543 " transform="matrix(0.196909,0,0,0.197511,0.00187084,0)"/>
<path style="fill-rule:nonzero;fill:rgb(80.392157%,38.039216%,8.627451%);fill-opacity:1;stroke-width:1;stroke-linecap:round;stroke-linejoin:round;stroke:rgb(80.392157%,38.039216%,8.627451%);stroke-opacity:1;stroke-miterlimit:4;" d="M 149.5679 421.673642 L 159.109907 340.96213 L 96.898404 342.761872 Z M 149.5679 421.673642 " transform="matrix(0.196909,0,0,0.197511,0.00187084,0)"/>
<path style="fill-rule:nonzero;fill:rgb(80.392157%,38.039216%,8.627451%);fill-opacity:1;stroke-width:1;stroke-linecap:round;stroke-linejoin:round;stroke:rgb(80.392157%,38.039216%,8.627451%);stroke-opacity:1;stroke-miterlimit:4;" d="M 348.720093 340.96213 L 358.2621 421.673642 L 410.931596 342.761872 Z M 348.720093 340.96213 " transform="matrix(0.196909,0,0,0.197511,0.00187084,0)"/>
<path style="fill-rule:nonzero;fill:rgb(80.392157%,38.039216%,8.627451%);fill-opacity:1;stroke-width:1;stroke-linecap:round;stroke-linejoin:round;stroke:rgb(80.392157%,38.039216%,8.627451%);stroke-opacity:1;stroke-miterlimit:4;" d="M 396.033369 252.122114 L 284.326427 257.106015 L 294.661947 314.539543 L 311.16704 279.948895 L 350.902257 298.045203 Z M 396.033369 252.122114 " transform="matrix(0.196909,0,0,0.197511,0.00187084,0)"/>
<path style="fill-rule:nonzero;fill:rgb(80.392157%,38.039216%,8.627451%);fill-opacity:1;stroke-width:1;stroke-linecap:round;stroke-linejoin:round;stroke:rgb(80.392157%,38.039216%,8.627451%);stroke-opacity:1;stroke-miterlimit:4;" d="M 157.126122 298.045203 L 196.861339 279.948895 L 213.168053 314.539543 L 223.701952 257.106015 L 111.796631 252.122114 Z M 157.126122 298.045203 " transform="matrix(0.196909,0,0,0.197511,0.00187084,0)"/>
<path style="fill-rule:nonzero;fill:rgb(89.411765%,45.882353%,12.156863%);fill-opacity:1;stroke-width:1;stroke-linecap:round;stroke-linejoin:round;stroke:rgb(89.411765%,45.882353%,12.156863%);stroke-opacity:1;stroke-miterlimit:4;" d="M 111.796631 252.122114 L 158.71315 343.552968 L 157.126122 298.045203 Z M 111.796631 252.122114 " transform="matrix(0.196909,0,0,0.197511,0.00187084,0)"/>
<path style="fill-rule:nonzero;fill:rgb(89.411765%,45.882353%,12.156863%);fill-opacity:1;stroke-width:1;stroke-linecap:round;stroke-linejoin:round;stroke:rgb(89.411765%,45.882353%,12.156863%);stroke-opacity:1;stroke-miterlimit:4;" d="M 350.902257 298.045203 L 348.918472 343.552968 L 396.033369 252.122114 Z M 350.902257 298.045203 " transform="matrix(0.196909,0,0,0.197511,0.00187084,0)"/>
<path style="fill-rule:nonzero;fill:rgb(89.411765%,45.882353%,12.156863%);fill-opacity:1;stroke-width:1;stroke-linecap:round;stroke-linejoin:round;stroke:rgb(89.411765%,45.882353%,12.156863%);stroke-opacity:1;stroke-miterlimit:4;" d="M 223.701952 257.106015 L 213.168053 314.539543 L 226.280873 382.316644 L 229.276388 293.061302 Z M 223.701952 257.106015 " transform="matrix(0.196909,0,0,0.197511,0.00187084,0)"/>
<path style="fill-rule:nonzero;fill:rgb(89.411765%,45.882353%,12.156863%);fill-opacity:1;stroke-width:1;stroke-linecap:round;stroke-linejoin:round;stroke:rgb(89.411765%,45.882353%,12.156863%);stroke-opacity:1;stroke-miterlimit:4;" d="M 284.326427 257.106015 L 278.950369 292.863528 L 281.330911 382.316644 L 294.661947 314.539543 Z M 284.326427 257.106015 " transform="matrix(0.196909,0,0,0.197511,0.00187084,0)"/>
<path style="fill-rule:nonzero;fill:rgb(96.470588%,52.156863%,10.588235%);fill-opacity:1;stroke-width:1;stroke-linecap:round;stroke-linejoin:round;stroke:rgb(96.470588%,52.156863%,10.588235%);stroke-opacity:1;stroke-miterlimit:4;" d="M 294.661947 314.539543 L 281.330911 382.316644 L 290.872918 388.862959 L 348.918472 343.552968 L 350.902257 298.045203 Z M 294.661947 314.539543 " transform="matrix(0.196909,0,0,0.197511,0.00187084,0)"/>
<path style="fill-rule:nonzero;fill:rgb(96.470588%,52.156863%,10.588235%);fill-opacity:1;stroke-width:1;stroke-linecap:round;stroke-linejoin:round;stroke:rgb(96.470588%,52.156863%,10.588235%);stroke-opacity:1;stroke-miterlimit:4;" d="M 157.126122 298.045203 L 158.71315 343.552968 L 216.758704 388.862959 L 226.280873 382.316644 L 213.168053 314.539543 Z M 157.126122 298.045203 " transform="matrix(0.196909,0,0,0.197511,0.00187084,0)"/>
<path style="fill-rule:nonzero;fill:rgb(75.294118%,67.843137%,61.960784%);fill-opacity:1;stroke-width:1;stroke-linecap:round;stroke-linejoin:round;stroke:rgb(75.294118%,67.843137%,61.960784%);stroke-opacity:1;stroke-miterlimit:4;" d="M 295.65384 451.280388 L 296.248975 432.80831 L 291.289513 428.41773 L 216.342109 428.41773 L 211.779403 432.80831 L 212.17616 451.280388 L 149.5679 421.673642 L 171.429213 439.552398 L 215.746973 470.365565 L 291.884648 470.365565 L 336.400787 439.552398 L 358.2621 421.673642 Z M 295.65384 451.280388 " transform="matrix(0.196909,0,0,0.197511,0.00187084,0)"/>
<path style="fill-rule:nonzero;fill:rgb(8.627451%,8.627451%,8.627451%);fill-opacity:1;stroke-width:1;stroke-linecap:round;stroke-linejoin:round;stroke:rgb(8.627451%,8.627451%,8.627451%);stroke-opacity:1;stroke-miterlimit:4;" d="M 290.872918 388.862959 L 281.330911 382.316644 L 226.280873 382.316644 L 216.758704 388.862959 L 211.779403 432.80831 L 216.342109 428.41773 L 291.289513 428.41773 L 296.248975 432.80831 Z M 290.872918 388.862959 " transform="matrix(0.196909,0,0,0.197511,0.00187084,0)"/>
<path style="fill-rule:nonzero;fill:rgb(46.27451%,23.921569%,8.627451%);fill-opacity:1;stroke-width:1;stroke-linecap:round;stroke-linejoin:round;stroke:rgb(46.27451%,23.921569%,8.627451%);stroke-opacity:1;stroke-miterlimit:4;" d="M 490.441705 156.913779 L 507.323717 75.826497 L 482.08997 0.494435 L 290.872918 142.416955 L 364.411834 204.616833 L 468.362176 235.034452 L 491.433598 208.19654 L 481.494834 201.056904 L 497.384953 186.540302 L 485.065647 177.007602 L 500.975604 164.864288 Z M 490.441705 156.913779 " transform="matrix(0.196909,0,0,0.197511,0.00187084,0)"/>
<path style="fill-rule:nonzero;fill:rgb(46.27451%,23.921569%,8.627451%);fill-opacity:1;stroke-width:1;stroke-linecap:round;stroke-linejoin:round;stroke:rgb(46.27451%,23.921569%,8.627451%);stroke-opacity:1;stroke-miterlimit:4;" d="M 0.506283 75.826497 L 17.388295 156.913779 L 6.656017 164.864288 L 22.565974 177.007602 L 10.445047 186.540302 L 26.335166 201.056904 L 16.396402 208.19654 L 39.269445 235.034452 L 143.219788 204.616833 L 216.758704 142.416955 L 25.541652 0.494435 Z M 0.506283 75.826497 " transform="matrix(0.196909,0,0,0.197511,0.00187084,0)"/>
<path style="fill-rule:nonzero;fill:rgb(96.470588%,52.156863%,10.588235%);fill-opacity:1;stroke-width:1;stroke-linecap:round;stroke-linejoin:round;stroke:rgb(96.470588%,52.156863%,10.588235%);stroke-opacity:1;stroke-miterlimit:4;" d="M 468.362176 235.034452 L 364.411834 204.616833 L 396.033369 252.122114 L 348.918472 343.552968 L 410.931596 342.761872 L 503.356147 342.761872 Z M 468.362176 235.034452 " transform="matrix(0.196909,0,0,0.197511,0.00187084,0)"/>
<path style="fill-rule:nonzero;fill:rgb(96.470588%,52.156863%,10.588235%);fill-opacity:1;stroke-width:1;stroke-linecap:round;stroke-linejoin:round;stroke:rgb(96.470588%,52.156863%,10.588235%);stroke-opacity:1;stroke-miterlimit:4;" d="M 143.219788 204.616833 L 39.269445 235.034452 L 4.672232 342.761872 L 96.898404 342.761872 L 158.71315 343.552968 L 111.796631 252.122114 Z M 143.219788 204.616833 " transform="matrix(0.196909,0,0,0.197511,0.00187084,0)"/>
<path style="fill-rule:nonzero;fill:rgb(96.470588%,52.156863%,10.588235%);fill-opacity:1;stroke-width:1;stroke-linecap:round;stroke-linejoin:round;stroke:rgb(96.470588%,52.156863%,10.588235%);stroke-opacity:1;stroke-miterlimit:4;" d="M 284.326427 257.106015 L 290.872918 142.416955 L 321.105804 60.716574 L 186.922575 60.716574 L 216.758704 142.416955 L 223.701952 257.106015 L 226.082494 293.278853 L 226.280873 382.316644 L 281.330911 382.316644 L 281.747506 293.278853 Z M 284.326427 257.106015 " transform="matrix(0.196909,0,0,0.197511,0.00187084,0)"/>
</g>
</svg>
